<?xml version="1.0" standalone="no"?>
<!DOCTYPE svg PUBLIC "-//W3C//DTD SVG 20010904//EN"
 "http://www.w3.org/TR/2001/REC-SVG-20010904/DTD/svg10.dtd">
<svg version="1.0" xmlns="http://www.w3.org/2000/svg"
 width="1080.000000pt" height="1080.000000pt" viewBox="0 0 1080.000000 1080.000000"
 preserveAspectRatio="xMidYMid meet">

<g transform="translate(0.000000,1080.000000) scale(0.100000,-0.100000)"
fill="#000000" stroke="none">
<path d="M6020 8202 c-78 -39 -137 -166 -147 -319 -5 -71 -3 -87 17 -129 65
-134 304 -316 470 -359 99 -25 102 -1 21 173 -66 144 -78 184 -86 300 -14 179
-62 283 -159 339 -30 18 -76 16 -116 -5z"/>
<path d="M6719 7859 c-55 -20 -109 -137 -109 -234 0 -53 -15 -104 -56 -193
-19 -40 -37 -84 -40 -98 -5 -21 -3 -24 22 -24 86 0 291 143 343 239 33 60 4
211 -51 274 -36 40 -69 51 -109 36z"/>
<path d="M5182 7780 c-40 -11 -114 -36 -165 -56 -51 -19 -137 -52 -192 -73
-113 -43 -310 -130 -495 -219 -179 -86 -381 -176 -732 -327 -337 -145 -451
-210 -567 -326 -190 -190 -294 -407 -352 -734 -17 -100 -22 -182 -28 -495 -6
-308 -10 -380 -23 -405 -21 -40 -85 -237 -99 -304 -12 -59 -4 -170 14 -196 17
-22 42 -10 57 26 7 16 14 28 16 27 2 -2 6 -33 9 -68 33 -351 103 -605 249
-905 124 -254 278 -466 491 -681 386 -389 881 -654 1435 -769 222 -46 349 -58
610 -58 263 0 387 12 615 59 744 155 1384 588 1786 1207 224 345 362 767 385
1179 l7 117 21 -31 c46 -68 71 -34 70 97 0 81 -5 106 -51 245 -28 85 -61 200
-73 255 -37 168 -140 472 -220 650 -247 552 -540 900 -859 1019 -78 29 -321
105 -546 171 -88 26 -180 60 -205 75 -25 15 -102 57 -172 94 -182 94 -370 204
-511 298 -174 115 -234 142 -327 145 -51 2 -98 -4 -148 -17z m1287 -692 c11
-35 43 -159 71 -276 75 -323 154 -542 235 -651 77 -105 253 -260 447 -395 303
-210 763 -446 868 -446 11 0 23 -6 25 -12 3 -7 14 -87 25 -178 11 -91 25 -190
31 -220 26 -127 6 -412 -46 -640 -210 -937 -988 -1701 -1985 -1951 -396 -99
-832 -116 -1230 -48 -981 166 -1797 815 -2121 1686 -129 349 -170 665 -126
973 32 221 37 245 54 268 34 45 164 92 347 127 663 128 1408 368 1921 620 184
91 227 115 473 272 662 423 982 712 982 888 0 25 2 45 4 45 2 0 14 -28 25 -62z
m-645 13 c3 -4 -10 -39 -29 -76 -37 -74 -55 -142 -55 -208 0 -52 13 -67 57
-67 65 0 184 106 256 227 16 27 25 37 21 23 -11 -43 -92 -157 -144 -203 -88
-79 -152 -96 -195 -52 -21 20 -25 34 -25 83 0 32 6 80 14 105 8 26 12 47 9 47
-3 0 -33 -22 -67 -48 -232 -183 -488 -281 -782 -299 -98 -6 -246 7 -344 29
-114 26 -390 134 -390 153 0 2 37 -12 83 -31 215 -93 424 -128 671 -112 302
19 604 156 838 377 65 62 73 67 82 52z m1448 -892 c166 -168 348 -299 451
-325 15 -3 26 -8 24 -11 -9 -8 -130 28 -181 54 -170 86 -386 297 -467 454 -32
64 -21 65 21 2 21 -33 90 -111 152 -174z m-3532 -174 c0 -12 -138 -61 -195
-69 l-40 -6 35 10 c94 27 137 42 160 55 26 15 40 18 40 10z m225 -118 c-61
-52 -169 -120 -243 -153 -114 -50 -188 -65 -342 -69 -128 -3 -135 -3 -60 5
246 25 467 104 625 223 74 56 87 52 20 -6z"/>
<path d="M6430 6936 c0 -3 -27 -81 -59 -174 -32 -93 -56 -174 -52 -181 20 -31
104 78 127 164 14 52 18 152 8 179 -5 14 -24 23 -24 12z"/>
<path d="M6494 5331 c-12 -5 -31 -22 -43 -37 -42 -54 -15 -165 45 -180 42 -11
355 4 370 17 8 6 14 27 14 46 0 54 -32 77 -166 119 -128 40 -187 49 -220 35z"/>
<path d="M4235 5285 c-5 -2 -62 -20 -125 -40 -125 -39 -160 -64 -160 -115 0
-52 14 -57 197 -64 120 -5 176 -4 194 4 35 16 59 60 59 110 0 34 -6 48 -34 76
-29 29 -41 34 -77 33 -24 0 -48 -2 -54 -4z"/>
<path d="M6361 5220 c0 -8 4 -22 9 -30 12 -18 12 -2 0 25 -6 13 -9 15 -9 5z"/>
<path d="M4441 5174 c0 -11 3 -14 6 -6 3 7 2 16 -1 19 -3 4 -6 -2 -5 -13z"/>
<path d="M4481 5144 c0 -11 3 -14 6 -6 3 7 2 16 -1 19 -3 4 -6 -2 -5 -13z"/>
<path d="M6731 4761 c-34 -36 -50 -90 -52 -168 -2 -72 2 -80 44 -91 44 -12 46
-36 3 -64 -20 -13 -37 -28 -40 -33 -8 -21 13 -252 25 -278 35 -76 118 14 154
165 18 79 19 300 2 384 -7 34 -21 73 -30 88 -24 37 -70 35 -106 -3z"/>
<path d="M4031 4749 c-52 -21 -75 -70 -87 -186 -7 -70 3 -93 41 -93 44 0 57
-52 15 -65 -46 -15 -50 -32 -40 -174 7 -114 11 -137 29 -154 17 -18 24 -19 44
-8 30 16 70 83 93 157 15 47 19 91 19 219 0 173 -13 255 -48 293 -22 24 -30
25 -66 11z"/>
<path d="M5551 4027 c-16 -40 -75 -79 -129 -84 -57 -5 -107 19 -139 67 -25 35
-33 17 -11 -23 50 -93 189 -109 256 -28 19 23 44 82 38 88 -3 3 -10 -6 -15
-20z"/>
<path d="M4432 3577 c-15 -16 -22 -36 -22 -62 0 -31 7 -45 38 -74 96 -91 324
-167 637 -213 119 -17 550 -17 670 0 299 42 509 108 604 187 42 36 44 90 4
130 -27 27 -30 27 -116 22 -49 -2 -93 -9 -98 -14 -5 -5 -25 -52 -43 -104 -19
-52 -38 -93 -42 -92 -5 2 -37 40 -70 85 l-62 82 -403 1 c-306 1 -438 6 -544
18 -77 10 -145 17 -152 17 -10 0 -74 -70 -140 -155 -13 -16 -24 -27 -27 -24
-2 2 -19 51 -37 109 l-34 105 -70 3 c-63 2 -73 0 -93 -21z"/>
</g>
</svg>
